<svg xmlns="http://www.w3.org/2000/svg" xmlns:xlink="http://www.w3.org/1999/xlink" version="1.1" x="0px" y="0px" viewBox="0 0 200 250" enable-background="new 0 0 200 200" xml:space="preserve"><g><path d="M126,181.1H66.4c-0.6,0-1.2-0.3-1.6-0.8c-0.4-0.5-0.5-1.1-0.3-1.7L94,70.8c0.2-0.9,1-1.5,1.9-1.5c0,0,0,0,0,0   c0.9,0,1.7,0.6,1.9,1.5L128,178.6c0.2,0.6,0,1.2-0.3,1.7C127.3,180.9,126.7,181.1,126,181.1z M69,177.1h54.4L95.9,78.8L69,177.1z"/></g><g><path d="M85.7,72.3c-0.1,0-0.1,0-0.2,0c-1.1-0.1-1.9-1.1-1.8-2.2c0.3-3.3,2.1-6.3,4.7-8.2c5.2-3.9,12.7-2.8,16.6,2.4   c1,1.4,1.7,2.9,2.1,4.5c0.2,1.1-0.4,2.1-1.5,2.4c-1.1,0.2-2.1-0.4-2.4-1.5c-0.2-1.1-0.7-2.1-1.4-3c-2.6-3.5-7.5-4.2-11-1.6   c-1.8,1.3-2.9,3.2-3.1,5.4C87.6,71.5,86.8,72.3,85.7,72.3z"/></g><g><path d="M70,87.5c-0.7,0-1.4-0.4-1.8-1c-7.1-12.8-4.4-28.6,6.5-38.4c12.9-11.6,32.9-10.6,44.5,2.3c8.8,9.8,10.6,24.1,4.5,35.7   c-0.5,1-1.7,1.3-2.7,0.8c-1-0.5-1.3-1.7-0.8-2.7c5.4-10.1,3.8-22.6-3.9-31.2c-10.2-11.2-27.6-12.1-38.9-2   c-9.5,8.6-11.9,22.3-5.7,33.5c0.5,1,0.2,2.2-0.8,2.7C70.6,87.4,70.3,87.5,70,87.5z"/></g><g><path d="M57,102.9c-0.6,0-1.2-0.3-1.6-0.8C40,81.9,42,53.2,60,35.3c20-19.9,52.5-19.9,72.4,0c17.1,17,19.9,43.9,6.7,63.9   c-0.6,0.9-1.8,1.2-2.8,0.6c-0.9-0.6-1.2-1.8-0.6-2.8c12.1-18.5,9.5-43.3-6.2-58.9c-18.4-18.3-48.4-18.3-66.8,0   c-16.6,16.5-18.4,43-4.3,61.6c0.7,0.9,0.5,2.1-0.4,2.8C57.8,102.8,57.4,102.9,57,102.9z"/></g><g><path d="M95.1,181.1c-0.5,0-1-0.2-1.4-0.6c-0.8-0.8-0.8-2,0-2.8l24.1-24c0.8-0.8,2-0.8,2.8,0c0.8,0.8,0.8,2,0,2.8l-24.1,24   C96.1,181,95.6,181.1,95.1,181.1z"/></g><g><path d="M87.9,103.2c-0.5,0-1-0.2-1.4-0.6c-0.8-0.8-0.8-2,0-2.8l12.5-12.5c0.8-0.8,2-0.8,2.8,0c0.8,0.8,0.8,2,0,2.8l-12.5,12.5   C89,103,88.5,103.2,87.9,103.2z"/></g><g><path d="M77.2,141.8c-0.5,0-1-0.2-1.4-0.6c-0.8-0.8-0.8-2,0-2.8l29.7-29.5c0.8-0.8,2-0.8,2.8,0c0.8,0.8,0.8,2,0,2.8l-29.7,29.5   C78.2,141.6,77.7,141.8,77.2,141.8z"/></g><g><path d="M66.4,181.1c-0.5,0-1-0.2-1.4-0.6c-0.8-0.8-0.8-2,0-2.8l46.6-46.4c0.8-0.8,2-0.8,2.8,0c0.8,0.8,0.8,2,0,2.8l-46.6,46.4   C67.4,181,66.9,181.1,66.4,181.1z"/></g></svg>