<svg xmlns="http://www.w3.org/2000/svg" xmlns:xlink="http://www.w3.org/1999/xlink" version="1.1" x="0px" y="0px" viewBox="0 0 64 80" style="enable-background:new 0 0 64 64;" xml:space="preserve"><g><path fill="#5DADE2" d="M29,51.979V58h6v-6.021c1.246-0.939,2-2.416,2-3.979c0-2.757-2.243-5-5-5s-5,2.243-5,5C27,49.563,27.754,51.04,29,51.979z    M32,45c1.654,0,3,1.346,3,3c0,1.068-0.562,2.033-1.503,2.581L33,50.87V56h-2v-5.13l-0.497-0.289C29.562,50.033,29,49.068,29,48   C29,46.346,30.346,45,32,45z"/><path fill="#5DADE2" d="M63,19.454L34.293,1h-4.587L1,19.454V23h2v40h58V23h2V19.454z M32,27c4.411,0,8,3.589,8,8v4.774   c-0.624-0.49-1.292-0.925-2-1.295V35c0-3.309-2.691-6-6-6s-6,2.691-6,6v3.479c-0.708,0.37-1.376,0.806-2,1.295V35   C24,30.589,27.589,27,32,27z M36,37.636C34.739,37.227,33.396,37,32,37s-2.739,0.227-4,0.636V35c0-2.206,1.794-4,4-4s4,1.794,4,4   V37.636z M32,39c6.065,0,11,4.935,11,11s-4.935,11-11,11s-11-4.935-11-11S25.935,39,32,39z M59,61H38.896   c2.843-1.789,4.942-4.641,5.74-8H55V27h-4v2h2v22h-8.051C44.975,50.669,45,50.338,45,50c0-3.151-1.128-6.042-3-8.295V35   c0-2.252-0.758-4.326-2.019-6H49v-2H37.974c-1.669-1.25-3.733-2-5.974-2s-4.305,0.75-5.974,2H9v26h4v-2h-2V29h13.019   C22.758,30.674,22,32.748,22,35v6.705c-1.872,2.253-3,5.144-3,8.295c0,0.338,0.025,0.669,0.051,1H15v2h4.363   c0.798,3.359,2.897,6.211,5.74,8H5V23h54V61z M61,21H3v-0.454L30.294,3h3.412L61,20.546V21z"/></g></svg>